 <svg
      width="2em"
      height="2em"
      viewBox="0 0 350 241"
      fill="none"
      xmlns="http://www.w3.org/2000/svg"
     
    >
      <path
        d="M2.52953e-06 208.503L83.684 106.105L124.83 131.346L2.52953e-06 208.503Z"
        fill="#654FF0"
      />
      <path
        d="M126.999 32.8032L45.3015 136.768L0.926552 110.958L126.999 32.8032Z"
        fill="#654FF0"
      />
      <path
        d="M142.579 147L122.288 92.41H131.661L149.686 141.85H145.257L164.003 92.41H172.346L190.68 141.85H186.354L204.791 92.41H213.649L193.255 147H183.779L166.578 101.886H169.462L152.055 147H142.579ZM225.247 167.6C222.638 167.6 220.097 167.154 217.625 166.261C215.153 165.437 213.024 164.201 211.239 162.553L215.462 155.137C216.835 156.442 218.346 157.437 219.994 158.124C221.642 158.811 223.393 159.154 225.247 159.154C227.65 159.154 229.642 158.536 231.221 157.3C232.8 156.064 234.277 153.867 235.65 150.708L239.049 143.189L240.079 141.953L261.503 92.41H271.185L244.714 152.459C243.135 156.304 241.349 159.326 239.358 161.523C237.435 163.72 235.307 165.265 232.972 166.158C230.637 167.119 228.062 167.6 225.247 167.6ZM238.225 148.751L213.299 92.41H223.599L244.817 141.026L238.225 148.751ZM281.855 147V87.569C281.855 82.213 283.4 77.9557 286.49 74.797C289.649 71.5697 294.112 69.956 299.88 69.956C302.009 69.956 304.034 70.2307 305.957 70.78C307.948 71.2607 309.631 72.0503 311.004 73.149L308.017 80.668C306.987 79.844 305.82 79.226 304.515 78.814C303.21 78.3333 301.837 78.093 300.395 78.093C297.511 78.093 295.314 78.917 293.803 80.565C292.292 82.1443 291.537 84.5133 291.537 87.672V94.985L291.743 99.517V147H281.855ZM272.585 100.547V92.41H307.399V100.547H272.585ZM335.471 147.618C329.977 147.618 325.72 146.142 322.699 143.189C319.677 140.236 318.167 136.013 318.167 130.52V80.462H328.055V130.108C328.055 133.061 328.776 135.327 330.218 136.906C331.728 138.485 333.857 139.275 336.604 139.275C339.694 139.275 342.269 138.417 344.329 136.7L347.419 143.807C345.908 145.112 344.088 146.073 341.96 146.691C339.9 147.309 337.737 147.618 335.471 147.618ZM308.897 100.547V92.41H343.711V100.547H308.897Z"
        fill="#654FF0"
      />
    </svg>